<svg width="41" height="41" viewBox="0 0 41 41" fill="none" xmlns="http://www.w3.org/2000/svg">
<path d="M39.36 0H1.64C0.732875 0 0 0.732875 0 1.64V39.36C0 40.2671 0.732875 41 1.64 41H39.36C40.2671 41 41 40.2671 41 39.36V1.64C41 0.732875 40.2671 0 39.36 0ZM37.72 37.72H28.2849V25.1227H33.6149L34.4144 18.9369H28.2849V14.9855C28.2849 13.1917 28.782 11.972 31.3496 11.972H34.6245V6.437C34.0556 6.36013 32.1133 6.191 29.848 6.191C25.1228 6.191 21.8889 9.07638 21.8889 14.3705V18.9317H16.5486V25.1176H21.894V37.72H3.28V3.28H37.72V37.72Z" fill="url(#paint0_linear_52_372)"/>
<defs>
<linearGradient id="paint0_linear_52_372" x1="-3.28" y1="9.85092e-07" x2="41" y2="41" gradientUnits="userSpaceOnUse">
<stop stop-color="#ED00B8"/>
<stop offset="1" stop-color="#00D2D4"/>
</linearGradient>
</defs>
</svg>
