<svg width="40" height="41" viewBox="0 0 40 41" fill="none" xmlns="http://www.w3.org/2000/svg">
<path d="M11.6 0H28.4C34.8 0 40 5.33 40 11.89V29.11C40 32.2634 38.7779 35.2877 36.6024 37.5175C34.427 39.7473 31.4765 41 28.4 41H11.6C5.2 41 0 35.67 0 29.11V11.89C0 8.73658 1.22214 5.71231 3.39756 3.4825C5.57298 1.25269 8.52349 0 11.6 0ZM11.2 4.1C9.29044 4.1 7.45909 4.87753 6.10883 6.26155C4.75857 7.64557 4 9.5227 4 11.48V29.52C4 33.5995 7.22 36.9 11.2 36.9H28.8C30.7096 36.9 32.5409 36.1225 33.8912 34.7384C35.2414 33.3544 36 31.4773 36 29.52V11.48C36 7.4005 32.78 4.1 28.8 4.1H11.2ZM30.5 7.175C31.163 7.175 31.7989 7.44498 32.2678 7.92554C32.7366 8.4061 33 9.05788 33 9.7375C33 10.4171 32.7366 11.0689 32.2678 11.5495C31.7989 12.03 31.163 12.3 30.5 12.3C29.837 12.3 29.2011 12.03 28.7322 11.5495C28.2634 11.0689 28 10.4171 28 9.7375C28 9.05788 28.2634 8.4061 28.7322 7.92554C29.2011 7.44498 29.837 7.175 30.5 7.175ZM20 10.25C22.6522 10.25 25.1957 11.3299 27.0711 13.2522C28.9464 15.1744 30 17.7815 30 20.5C30 23.2185 28.9464 25.8256 27.0711 27.7478C25.1957 29.6701 22.6522 30.75 20 30.75C17.3478 30.75 14.8043 29.6701 12.9289 27.7478C11.0536 25.8256 10 23.2185 10 20.5C10 17.7815 11.0536 15.1744 12.9289 13.2522C14.8043 11.3299 17.3478 10.25 20 10.25ZM20 14.35C18.4087 14.35 16.8826 14.9979 15.7574 16.1513C14.6321 17.3046 14 18.8689 14 20.5C14 22.1311 14.6321 23.6954 15.7574 24.8487C16.8826 26.0021 18.4087 26.65 20 26.65C21.5913 26.65 23.1174 26.0021 24.2426 24.8487C25.3679 23.6954 26 22.1311 26 20.5C26 18.8689 25.3679 17.3046 24.2426 16.1513C23.1174 14.9979 21.5913 14.35 20 14.35Z" fill="url(#paint0_linear_52_373)"/>
<defs>
<linearGradient id="paint0_linear_52_373" x1="6.4" y1="3.28" x2="36.8921" y2="40.2645" gradientUnits="userSpaceOnUse">
<stop stop-color="#ED00B8"/>
<stop offset="1" stop-color="#00D2D4"/>
</linearGradient>
</defs>
</svg>
