<svg width="24" height="24" viewBox="0 0 24 24" fill="none" xmlns="http://www.w3.org/2000/svg">
<path fill-rule="evenodd" clip-rule="evenodd" d="M5.5 18C5.5 17.8674 5.55268 17.7402 5.64645 17.6464C5.74021 17.5527 5.86739 17.5 6 17.5H18C18.1326 17.5 18.2598 17.5527 18.3536 17.6464C18.4473 17.7402 18.5 17.8674 18.5 18C18.5 18.1326 18.4473 18.2598 18.3536 18.3536C18.2598 18.4473 18.1326 18.5 18 18.5H6C5.86739 18.5 5.74021 18.4473 5.64645 18.3536C5.55268 18.2598 5.5 18.1326 5.5 18Z" fill="white"/>
<path d="M9 11.5H7C6.72386 11.5 6.5 11.7239 6.5 12V18C6.5 18.2761 6.72386 18.5 7 18.5H9C9.27614 18.5 9.5 18.2761 9.5 18V12C9.5 11.7239 9.27614 11.5 9 11.5Z" fill="white"/>
<path d="M13 5.5H11C10.7239 5.5 10.5 5.72386 10.5 6V18C10.5 18.2761 10.7239 18.5 11 18.5H13C13.2761 18.5 13.5 18.2761 13.5 18V6C13.5 5.72386 13.2761 5.5 13 5.5Z" fill="white"/>
<path d="M17 8.5H15C14.7239 8.5 14.5 8.72386 14.5 9V18C14.5 18.2761 14.7239 18.5 15 18.5H17C17.2761 18.5 17.5 18.2761 17.5 18V9C17.5 8.72386 17.2761 8.5 17 8.5Z" fill="white"/>
</svg>
