<svg width="24" height="24" viewBox="0 0 24 24" fill="none" xmlns="http://www.w3.org/2000/svg">
<path d="M6.75 0.75C6.75 0.3375 6.4125 0 6 0C5.5875 0 5.25 0.3375 5.25 0.75V1.5H4.5C4.0875 1.5 3.75 1.8375 3.75 2.25C3.75 2.6625 4.0875 3 4.5 3H5.25V4.5H2.82188C2.30156 4.5 1.875 4.92656 1.875 5.44687C1.875 5.56406 1.89844 5.67656 1.93594 5.78906L3.45938 9.75H3.375C2.75156 9.75 2.25 10.2516 2.25 10.875C2.25 11.4984 2.75156 12 3.375 12H3.5625L2.8125 18H9.1875L8.4375 12H8.625C9.24844 12 9.75 11.4984 9.75 10.875C9.75 10.2516 9.24844 9.75 8.625 9.75H8.54062L10.0641 5.78906C10.1062 5.68125 10.125 5.56406 10.125 5.44687C10.125 4.92188 9.69844 4.5 9.17813 4.5H6.75V3H7.5C7.9125 3 8.25 2.6625 8.25 2.25C8.25 1.8375 7.9125 1.5 7.5 1.5H6.75V0.75ZM2.25 19.5L0.225 22.2C0.0796875 22.3969 0 22.6313 0 22.875C0 23.4984 0.501562 24 1.125 24H10.875C11.4984 24 12 23.4984 12 22.875C12 22.6313 11.9203 22.3969 11.775 22.2L9.75 19.5H2.25ZM15.75 19.5L13.725 22.2C13.5797 22.3969 13.5 22.6313 13.5 22.875C13.5 23.4984 14.0016 24 14.625 24H22.875C23.4984 24 24 23.4984 24 22.875C24 22.6313 23.9203 22.3969 23.775 22.2L21.75 19.5H15.75ZM14.25 9.75V12.1828C14.25 12.5484 14.3813 12.9 14.625 13.1719L15.9 14.625L15.7969 18H21.6797L21.525 14.625L22.8516 13.1813C23.1047 12.9047 23.25 12.5437 23.25 12.1641V9.75C23.25 9.3375 22.9125 9 22.5 9H21.75C21.3375 9 21 9.3375 21 9.75V10.5H19.875V9.75C19.875 9.3375 19.5375 9 19.125 9H18.375C17.9625 9 17.625 9.3375 17.625 9.75V10.5H16.5V9.75C16.5 9.3375 16.1625 9 15.75 9H15C14.5875 9 14.25 9.3375 14.25 9.75ZM18 14.25C18 13.8375 18.3375 13.5 18.75 13.5C19.1625 13.5 19.5 13.8375 19.5 14.25V15.75H18V14.25Z" fill="white"/>
</svg>
