<svg width="24" height="24" viewBox="0 0 24 24" fill="none" xmlns="http://www.w3.org/2000/svg">
<path d="M18.5453 22.4353C18.9727 21.998 19.3327 21.3813 19.3327 20.534C19.3327 18.4347 16.9027 16.032 15.9993 14C15.1107 12 14.5967 10.0833 15.944 9.54133L16.0573 9.49267C16.4427 9.34733 16.666 9.17933 16.666 9C16.666 8.69333 16.0194 8.41867 15.0033 8.23533C15.5245 7.79817 15.9434 7.25207 16.2307 6.6355C16.5179 6.01893 16.6665 5.34687 16.666 4.66667C16.666 4.05383 16.5453 3.447 16.3108 2.88081C16.0763 2.31462 15.7325 1.80018 15.2992 1.36683C14.8658 0.933495 14.3514 0.589751 13.7852 0.355229C13.219 0.120707 12.6122 0 11.9993 0C11.3865 0 10.7797 0.120707 10.2135 0.355229C9.64731 0.589751 9.13286 0.933495 8.69952 1.36683C8.26618 1.80018 7.92243 2.31462 7.68791 2.88081C7.45339 3.447 7.33268 4.05383 7.33268 4.66667C7.33215 5.34687 7.48075 6.01893 7.76801 6.6355C8.05528 7.25207 8.47423 7.79817 8.99535 8.23533C7.97935 8.41867 7.33268 8.69333 7.33268 9C7.33268 9.17933 7.55602 9.34733 7.94202 9.49267C7.97935 9.50867 8.01268 9.52467 8.05468 9.54133C9.40202 10.0833 8.88802 12 7.99935 14C7.09602 16.032 4.66602 18.4347 4.66602 20.534C4.66602 21.3813 5.02602 21.998 5.45335 22.4353C4.95402 22.7053 4.66602 23.01 4.66602 23.3333C4.66602 23.5673 4.82135 23.7913 5.09202 24H18.906C19.1774 23.7913 19.3327 23.5673 19.3327 23.3333C19.3327 23.01 19.0447 22.7053 18.5453 22.4353Z" fill="white"/>
<path d="M14.6683 3.16146C14.5753 3.16143 14.4841 3.13553 14.405 3.08667C14.3259 3.03782 14.2619 2.96792 14.2203 2.88479C14.2003 2.84612 13.6429 1.82812 12.0009 1.82812C10.3589 1.82812 9.80228 2.84612 9.77894 2.89012C9.71757 3.00699 9.61259 3.09494 9.48678 3.13488C9.36097 3.17482 9.22448 3.16353 9.10694 3.10346C8.98971 3.04404 8.90077 2.94064 8.85955 2.81584C8.81832 2.69105 8.82817 2.55501 8.88694 2.43746C8.91961 2.37212 9.71828 0.828125 12.0009 0.828125C14.2836 0.828125 15.0816 2.37212 15.1149 2.43812C15.1532 2.51428 15.1713 2.59896 15.1675 2.68409C15.1638 2.76922 15.1383 2.85198 15.0935 2.92448C15.0488 2.99698 14.9862 3.05682 14.9117 3.0983C14.8373 3.13978 14.7535 3.16153 14.6683 3.16146ZM14.6676 9.32812C14.6158 9.32802 14.5647 9.31593 14.5183 9.29279C14.5156 9.29212 13.8596 8.99479 12.0009 8.99479C10.1416 8.99479 9.48628 9.29212 9.47961 9.29479C9.40004 9.33226 9.30892 9.3369 9.22595 9.3077C9.14299 9.27851 9.07485 9.21783 9.03628 9.13879C8.99783 9.06021 8.99194 8.96964 9.01991 8.88675C9.04787 8.80386 9.10742 8.73535 9.18561 8.69612C9.26094 8.65879 9.98028 8.32812 12.0009 8.32812C14.0209 8.32812 14.7409 8.65879 14.8169 8.69679C14.884 8.73042 14.9378 8.78572 14.9696 8.85373C15.0014 8.92174 15.0092 8.99847 14.992 9.07152C14.9747 9.14456 14.9333 9.20964 14.8744 9.25621C14.8155 9.30278 14.7427 9.32812 14.6676 9.32812ZM6.66761 22.9948C6.58267 22.9939 6.50128 22.9606 6.44007 22.9016C6.37887 22.8427 6.34246 22.7627 6.33829 22.6778C6.33412 22.593 6.3625 22.5098 6.41764 22.4451C6.47277 22.3805 6.5505 22.3394 6.63494 22.3301C6.66761 22.3261 10.0076 21.9948 12.0009 21.9948C13.9943 21.9948 17.3336 22.3261 17.3676 22.3301C17.4112 22.3344 17.4535 22.3472 17.492 22.3678C17.5306 22.3885 17.5648 22.4166 17.5925 22.4505C17.6202 22.4844 17.6409 22.5234 17.6534 22.5653C17.666 22.6073 17.6701 22.6513 17.6656 22.6948C17.6614 22.7384 17.6485 22.7806 17.6279 22.8192C17.6072 22.8578 17.5791 22.8919 17.5453 22.9196C17.5114 22.9473 17.4723 22.9681 17.4304 22.9806C17.3885 22.9932 17.3445 22.9973 17.3009 22.9928C17.2676 22.9895 13.9609 22.6615 12.0009 22.6615C10.0403 22.6615 6.73428 22.9895 6.70094 22.9928L6.66761 22.9948Z" fill="white"/>
</svg>
