<svg width="121" height="120" viewBox="0 0 121 120" fill="#ED00B8" xmlns="http://www.w3.org/2000/svg">
<path d="M49.9531 93.0469H14.7969C14.375 93.0469 14 92.8359 13.7891 92.4609C13.5781 92.1094 13.5781 91.6641 13.7891 91.2891L24.3359 72.5391C24.5469 72.1641 24.9453 71.9531 25.3672 71.9531H60.5234C60.9453 71.9531 61.3203 72.1641 61.5312 72.5391C61.7422 72.8906 61.7422 73.3359 61.5312 73.7109L50.9844 92.4609C50.7734 92.8125 50.375 93.0469 49.9531 93.0469ZM16.7891 90.7031H49.25L58.4844 74.2969H26.0234L16.7891 90.7031ZM95.6562 120H25.3438C24.6875 120 24.1719 119.484 24.1719 118.828V96.5625H26.5156V117.656H94.4844V91.875H96.8281V118.828C96.8281 119.484 96.3125 120 95.6562 120Z" fill="#ED00B8"/>
<path d="M106.203 93.0469H71.0469C70.625 93.0469 70.2266 92.8125 70.0156 92.4609L59.4688 73.7109C59.2578 73.3594 59.2578 72.9141 59.4688 72.5391C59.6797 72.1875 60.0547 71.9531 60.4766 71.9531H95.6328C96.0547 71.9531 96.4531 72.1875 96.6641 72.5391L107.211 91.2891C107.422 91.6406 107.422 92.0859 107.211 92.4609C107 92.8359 106.625 93.0469 106.203 93.0469ZM71.7266 90.7031H104.188L94.9531 74.2969H62.4922L71.7266 90.7031ZM69.875 53.9062H51.125C49.1797 53.9062 47.6094 52.3359 47.6094 50.3906C47.6094 48.4453 49.1797 46.875 51.125 46.875H69.875C71.8203 46.875 73.3906 48.4453 73.3906 50.3906C73.3906 52.3359 71.8203 53.9062 69.875 53.9062ZM51.125 49.2188C50.4688 49.2188 49.9531 49.7344 49.9531 50.3906C49.9531 51.0469 50.4688 51.5625 51.125 51.5625H69.875C70.5313 51.5625 71.0469 51.0469 71.0469 50.3906C71.0469 49.7344 70.5313 49.2188 69.875 49.2188H51.125Z" fill="#ED00B8"/>
<path d="M69.875 58.5938H51.125C49.1797 58.5938 47.6094 57.0234 47.6094 55.0781C47.6094 53.1328 49.1797 51.5625 51.125 51.5625H69.875C71.8203 51.5625 73.3906 53.1328 73.3906 55.0781C73.3906 57.0234 71.8203 58.5938 69.875 58.5938ZM51.125 53.9062C50.4688 53.9062 49.9531 54.4219 49.9531 55.0781C49.9531 55.7344 50.4688 56.25 51.125 56.25H69.875C70.5312 56.25 71.0469 55.7344 71.0469 55.0781C71.0469 54.4219 70.5312 53.9062 69.875 53.9062H51.125Z" fill="#ED00B8"/>
<path d="M69.875 63.2812H51.125C49.1797 63.2812 47.6094 61.7109 47.6094 59.7656C47.6094 57.8203 49.1797 56.25 51.125 56.25H69.875C71.8203 56.25 73.3906 57.8203 73.3906 59.7656C73.3906 61.7109 71.8203 63.2812 69.875 63.2812ZM51.125 58.5938C50.4688 58.5938 49.9531 59.1094 49.9531 59.7656C49.9531 60.4219 50.4688 60.9375 51.125 60.9375H69.875C70.5312 60.9375 71.0469 60.4219 71.0469 59.7656C71.0469 59.1094 70.5312 58.5938 69.875 58.5938H51.125Z" fill="#ED00B8"/>
<path d="M64.0156 67.9688H56.9844C53.75 67.9688 51.125 65.3438 51.125 62.1094C51.125 61.4531 51.6406 60.9375 52.2969 60.9375H68.7031C69.3594 60.9375 69.875 61.4531 69.875 62.1094C69.875 65.3438 67.25 67.9688 64.0156 67.9688ZM53.6797 63.2812C54.1719 64.6406 55.4609 65.625 56.9844 65.625H64.0156C65.5391 65.625 66.8516 64.6406 67.3203 63.2812H53.6797ZM65.1875 48.0469H62.8438V32.8125H58.1562V48.0469H55.8125V32.8125H53.4688C50.8906 32.8125 48.7812 30.7031 48.7812 28.125C48.7812 25.5469 50.8906 23.4375 53.4688 23.4375C56.0469 23.4375 58.1562 25.5469 58.1562 28.125V30.4688H62.8438V28.125C62.8438 25.5469 64.9531 23.4375 67.5312 23.4375C70.1094 23.4375 72.2188 25.5469 72.2188 28.125C72.2188 30.7031 70.1094 32.8125 67.5312 32.8125H65.1875V48.0469ZM65.1875 30.4688H67.5312C68.8203 30.4688 69.875 29.4141 69.875 28.125C69.875 26.8359 68.8203 25.7812 67.5312 25.7812C66.2422 25.7812 65.1875 26.8359 65.1875 28.125V30.4688ZM53.4688 25.7812C52.1797 25.7812 51.125 26.8359 51.125 28.125C51.125 29.4141 52.1797 30.4688 53.4688 30.4688H55.8125V28.125C55.8125 26.8359 54.7578 25.7812 53.4688 25.7812Z" fill="#ED00B8"/>
<path d="M97.0625 23.4375H87.6875V25.7812H97.0625V23.4375Z" fill="#ED00B8"/>
<path d="M33.3125 23.4375H23.9375V25.7812H33.3125V23.4375Z" fill="#ED00B8"/>
<path d="M94.72 37.5069L86.0586 33.9193L85.1617 36.0846L93.823 39.6723L94.72 37.5069Z" fill="#ED00B8"/>
<path d="M35.8362 13.1373L27.1748 9.54968L26.2779 11.715L34.9393 15.3027L35.8362 13.1373Z" fill="#ED00B8"/>
<path d="M94.7084 11.6968L93.8115 9.53143L85.1502 13.1191L86.0471 15.2844L94.7084 11.6968Z" fill="#ED00B8"/>
<path d="M35.8412 36.1017L34.9443 33.9364L26.283 37.5241L27.1799 39.6894L35.8412 36.1017Z" fill="#ED00B8"/>
<path d="M50.3047 48.8672L45.6875 44.25C39.4531 39.5391 35.8906 32.3906 35.8906 24.6094C35.8906 11.0391 46.9297 0 60.5 0C74.0703 0 85.1094 11.0391 85.1094 24.6094C85.1094 32.4141 81.5234 39.5859 75.2656 44.2969L73.8594 42.4219C79.5312 38.1797 82.7656 31.6875 82.7656 24.6094C82.7656 12.3281 72.7812 2.34375 60.5 2.34375C48.2188 2.34375 38.2344 12.3281 38.2344 24.6094C38.2344 31.6641 41.4687 38.1562 47.1172 42.3984C47.1641 42.4453 47.2109 42.4688 47.2578 42.5156L51.9453 47.2031L50.3047 48.8672Z" fill="#ED00B8"/>
<path d="M61.6719 73.125H59.3281V118.828H61.6719V73.125Z" fill="#ED00B8"/>
</svg>
