<svg width="121" height="120" viewBox="0 0 121 120" fill="none" xmlns="http://www.w3.org/2000/svg">
<path d="M109.25 91.875C109.25 89.3886 108.263 87.004 106.504 85.2459C104.746 83.4877 102.362 82.5 99.8753 82.5H96.6503C96.0138 82.5 95.4034 82.2471 94.9533 81.7971C94.5032 81.347 94.2503 80.7365 94.2503 80.1V77.4563C96.4902 76.3938 98.3834 74.7187 99.7107 72.6249C101.038 70.531 101.745 68.1041 101.75 65.625V56.25C101.75 52.769 100.368 49.4306 97.9061 46.9692C95.4447 44.5078 92.1063 43.125 88.6253 43.125C85.1444 43.125 81.806 44.5078 79.3445 46.9692C76.8831 49.4306 75.5003 52.769 75.5003 56.25V65.625C75.5055 68.1041 76.2126 70.531 77.5399 72.6249C78.8673 74.7187 80.7604 76.3938 83.0003 77.4563V80.1C83.0003 80.7365 82.7475 81.347 82.2974 81.7971C81.8473 82.2471 81.2368 82.5 80.6003 82.5H77.3753C74.8889 82.5 72.5043 83.4877 70.7462 85.2459C68.988 87.004 68.0003 89.3886 68.0003 91.875V106.875H64.2503V110.625H113V106.875H109.25V91.875ZM97.6066 53.7375C95.8396 54.4026 93.9159 54.5331 92.0753 54.1125C93.1394 52.4954 93.837 50.6651 94.1191 48.75C95.8039 49.9784 97.031 51.7334 97.6066 53.7375ZM88.6253 46.875C89.2548 46.8786 89.8826 46.9414 90.5003 47.0625C90.4512 49.5163 89.4419 51.8529 87.689 53.5707C85.9362 55.2886 83.5796 56.2505 81.1253 56.25C80.4947 56.2487 79.8661 56.1795 79.2503 56.0437C79.3042 53.5933 80.3157 51.2613 82.0681 49.5476C83.8204 47.8338 86.1742 46.8744 88.6253 46.875ZM79.2503 65.625V59.85C79.8706 59.9473 80.4974 59.9974 81.1253 60C84.0929 60.0089 86.973 58.9959 89.2816 57.1312C92.0487 58.2869 95.1327 58.4395 98.0003 57.5625V65.625C98.0003 68.1114 97.0126 70.496 95.2544 72.2541C93.4963 74.0123 91.1117 75 88.6253 75C86.1389 75 83.7543 74.0123 81.9962 72.2541C80.238 70.496 79.2503 68.1114 79.2503 65.625ZM90.5003 78.75V80.1C90.5023 80.9225 90.6693 81.7363 90.9913 82.4931C91.3134 83.25 91.784 83.9345 92.3753 84.5062V86.25C92.3753 87.2446 91.9802 88.1984 91.277 88.9017C90.5737 89.6049 89.6199 90 88.6253 90C87.6308 90 86.6769 89.6049 85.9737 88.9017C85.2704 88.1984 84.8753 87.2446 84.8753 86.25V84.5062C85.4666 83.9345 85.9372 83.25 86.2593 82.4931C86.5814 81.7363 86.7483 80.9225 86.7503 80.1V78.75H90.5003ZM71.7503 106.875V91.875C71.7503 90.3832 72.343 88.9524 73.3978 87.8975C74.4527 86.8426 75.8835 86.25 77.3753 86.25H80.6003C80.7752 86.2602 80.9505 86.2602 81.1253 86.25C81.1253 88.2391 81.9155 90.1468 83.322 91.5533C84.7285 92.9598 86.6362 93.75 88.6253 93.75C90.6144 93.75 92.5221 92.9598 93.9286 91.5533C95.3351 90.1468 96.1253 88.2391 96.1253 86.25C96.3002 86.2602 96.4755 86.2602 96.6503 86.25H99.8753C101.367 86.25 102.798 86.8426 103.853 87.8975C104.908 88.9524 105.5 90.3832 105.5 91.875V106.875H71.7503ZM92.3753 97.5H101.75V101.25H92.3753V97.5ZM64.2503 95.625H13.6253C13.128 95.625 12.6511 95.4275 12.2995 95.0758C11.9479 94.7242 11.7503 94.2473 11.7503 93.75C11.7503 93.2527 11.9479 92.7758 12.2995 92.4242C12.6511 92.0725 13.128 91.875 13.6253 91.875H64.5316V88.125H15.5003V20.625H105.5V80.625H109.25V20.2875C110.49 19.8375 111.533 18.9661 112.196 17.8254C112.858 16.6847 113.099 15.3474 112.875 14.0473C112.652 12.7472 111.979 11.5669 110.973 10.7128C109.968 9.85877 108.694 9.38523 107.375 9.375H13.6253C12.3062 9.38523 11.0326 9.85877 10.0272 10.7128C9.02182 11.5669 8.34858 12.7472 8.12519 14.0473C7.9018 15.3474 8.14247 16.6847 8.80512 17.8254C9.46777 18.9661 10.5102 19.8375 11.7503 20.2875V88.4625C10.5102 88.9125 9.46777 89.7839 8.80512 90.9246C8.14247 92.0653 7.9018 93.4026 8.12519 94.7027C8.34858 96.0028 9.02182 97.1831 10.0272 98.0372C11.0326 98.8912 12.3062 99.3648 13.6253 99.375H64.2503V95.625ZM13.6253 13.125H107.375C107.873 13.125 108.35 13.3225 108.701 13.6742C109.053 14.0258 109.25 14.5027 109.25 15C109.25 15.4973 109.053 15.9742 108.701 16.3258C108.35 16.6775 107.873 16.875 107.375 16.875H13.6253C13.128 16.875 12.6511 16.6775 12.2995 16.3258C11.9479 15.9742 11.7503 15.4973 11.7503 15C11.7503 14.5027 11.9479 14.0258 12.2995 13.6742C12.6511 13.3225 13.128 13.125 13.6253 13.125ZM38.0003 37.5C38.0003 37.0027 37.8028 36.5258 37.4511 36.1742C37.0995 35.8225 36.6226 35.625 36.1253 35.625H24.8753C24.378 35.625 23.9011 35.8225 23.5495 36.1742C23.1979 36.5258 23.0003 37.0027 23.0003 37.5V48.75C23.0003 49.2473 23.1979 49.7242 23.5495 50.0758C23.9011 50.4275 24.378 50.625 24.8753 50.625H36.1253C36.6226 50.625 37.0995 50.4275 37.4511 50.0758C37.8028 49.7242 38.0003 49.2473 38.0003 48.75V37.5ZM34.2503 46.875H26.7503V39.375H34.2503V46.875ZM96.1253 39.375H45.5003V35.625H96.1253V39.375ZM71.7503 50.625H45.5003V46.875H71.7503V50.625ZM71.7503 61.875H45.5003V58.125H71.7503V61.875ZM45.5003 69.375H71.7503V73.125H45.5003V69.375ZM36.1253 58.125H24.8753C24.378 58.125 23.9011 58.3225 23.5495 58.6742C23.1979 59.0258 23.0003 59.5027 23.0003 60V71.25C23.0003 71.7473 23.1979 72.2242 23.5495 72.5758C23.9011 72.9275 24.378 73.125 24.8753 73.125H36.1253C36.6226 73.125 37.0995 72.9275 37.4511 72.5758C37.8028 72.2242 38.0003 71.7473 38.0003 71.25V60C38.0003 59.5027 37.8028 59.0258 37.4511 58.6742C37.0995 58.3225 36.6226 58.125 36.1253 58.125ZM34.2503 69.375H26.7503V61.875H34.2503V69.375Z" fill="white"/>
</svg>
