<svg width="121" height="120" viewBox="0 0 121 120" fill="none" xmlns="http://www.w3.org/2000/svg">
<path d="M4.25 108.75H71.75C72.785 108.75 73.625 107.91 73.625 106.875V93.75C73.625 85.1906 67.8763 77.5687 59.645 75.2175L47.375 71.7112V68.7131C51.9313 66.0675 55.2875 61.5731 56.3713 56.25H56.75C60.8862 56.25 64.25 52.8862 64.25 48.75C64.25 46.8656 63.5281 45.1613 62.375 43.8413V28.1231C62.375 23.5425 59.0694 19.7175 54.7175 18.9056C53.9075 14.5556 50.0825 11.25 45.5 11.25H32.375C22.0363 11.25 13.625 19.6613 13.625 30V43.8413C12.4719 45.1613 11.75 46.8656 11.75 48.75C11.75 52.8862 15.1137 56.25 19.25 56.25H19.6287C20.7125 61.5731 24.0688 66.0675 28.625 68.7131V71.7112L16.355 75.2175C8.12375 77.5687 2.375 85.1906 2.375 93.75V106.875C2.375 107.91 3.215 108.75 4.25 108.75ZM30.3144 75.1275L34.835 77.3887L30.5 81.7237L25.3287 76.5525L30.3144 75.1275ZM45.6856 75.1275L50.6694 76.5525L45.5 81.7237L41.165 77.3887L45.6856 75.1275ZM38 79.5263L41.9694 83.4956L40.5913 86.25H35.4087L34.0306 83.4956L38 79.5263ZM35.9469 90H40.0531L41.5512 105H34.445L35.9469 90ZM69.875 93.75V105H62.375V95.625H58.625V105H45.32L43.67 88.4794L44.8475 86.1244C45.0575 86.2012 45.2788 86.25 45.5 86.25C45.98 86.25 46.46 86.0663 46.8256 85.7006L54.7944 77.7319L58.6138 78.8231C65.2456 80.7169 69.875 86.8556 69.875 93.75ZM56.75 52.5V45C58.8181 45 60.5 46.6819 60.5 48.75C60.5 50.8181 58.8181 52.5 56.75 52.5ZM32.375 15H45.5C48.6012 15 51.125 17.5237 51.125 20.625C51.125 21.66 51.965 22.5 53 22.5C56.0994 22.5 58.6231 25.0238 58.6231 28.125V41.5181C58.0213 41.3587 57.4006 41.25 56.75 41.25C56.75 40.7531 56.5531 40.275 56.2006 39.9244L46.8256 30.5494C46.3813 30.105 45.7419 29.9137 45.1231 30.0394C44.5062 30.165 43.9925 30.5944 43.7581 31.1794C41.7669 36.1575 37.0156 39.375 31.6531 39.375H21.125C20.09 39.375 19.25 40.215 19.25 41.25C18.5994 41.25 17.9788 41.3588 17.375 41.5163V30C17.375 21.7294 24.1044 15 32.375 15ZM15.5 48.75C15.5 46.6819 17.1819 45 19.25 45V52.5C17.1819 52.5 15.5 50.8181 15.5 48.75ZM23 52.5V43.125H31.6531C37.625 43.125 43.01 40.0256 46.0138 35.04L53 42.0262V52.5C53 60.7706 46.2706 67.5 38 67.5C29.7294 67.5 23 60.7706 23 52.5ZM38 71.25C39.9594 71.25 41.8475 70.9463 43.625 70.3856V71.9663L38 74.7788L32.375 71.9663V70.3856C34.1525 70.9463 36.0406 71.25 38 71.25ZM6.125 93.75C6.125 86.8556 10.7544 80.7169 17.3844 78.8231L21.2038 77.7319L29.1725 85.7006C29.54 86.0663 30.02 86.25 30.5 86.25C30.7213 86.25 30.9425 86.2012 31.1525 86.1225L32.33 88.4775L30.6763 105H17.375V95.625H13.625V105H6.125V93.75Z" fill="white"/>
<path d="M113 11.25H99.875V15H113V11.25Z" fill="white"/>
<path d="M118.625 18.75H99.875V22.5H118.625V18.75Z" fill="white"/>
<path d="M109.25 26.25H99.875V30H109.25V26.25Z" fill="white"/>
<path d="M113 37.5H99.875V41.25H113V37.5Z" fill="white"/>
<path d="M118.625 45H99.875V48.75H118.625V45Z" fill="white"/>
<path d="M109.25 52.5H99.875V56.25H109.25V52.5Z" fill="white"/>
<path d="M113 63.75H99.875V67.5H113V63.75Z" fill="white"/>
<path d="M118.625 71.25H99.875V75H118.625V71.25Z" fill="white"/>
<path d="M109.25 78.75H99.875V82.5H109.25V78.75Z" fill="white"/>
<path d="M113 90H99.875V93.75H113V90Z" fill="white"/>
<path d="M118.625 97.5H99.875V101.25H118.625V97.5Z" fill="white"/>
<path d="M109.25 105H99.875V108.75H109.25V105Z" fill="white"/>
<path d="M86.75 108.75C91.9194 108.75 96.125 104.544 96.125 99.375C96.125 97.8581 95.7294 96.4462 95.0881 95.1787L97.3269 93.3131L94.9269 90.4331L92.7594 92.2406C91.1263 90.8625 89.0469 90 86.75 90C81.5806 90 77.375 94.2056 77.375 99.375C77.375 104.544 81.5806 108.75 86.75 108.75ZM86.75 93.75C87.8881 93.75 88.9456 94.095 89.8306 94.6781L83.675 99.81L86.075 102.69L92.0863 97.68C92.2569 98.2181 92.375 98.7806 92.375 99.375C92.375 102.476 89.8513 105 86.75 105C83.6488 105 81.125 102.476 81.125 99.375C81.125 96.2737 83.6488 93.75 86.75 93.75ZM86.75 82.5019C91.9194 82.5019 96.125 78.2962 96.125 73.1269C96.125 71.61 95.7294 70.1981 95.0881 68.9306L97.3269 67.065L94.9269 64.185L92.7594 65.9925C91.1281 64.6162 89.0487 63.7537 86.7519 63.7537C81.5825 63.7537 77.3769 67.9594 77.3769 73.1287C77.3769 78.2981 81.5806 82.5019 86.75 82.5019ZM86.75 67.5019C87.8881 67.5019 88.9456 67.8469 89.8306 68.43L83.675 73.5619L86.075 76.4419L92.0863 71.4319C92.2569 71.9719 92.375 72.5325 92.375 73.1269C92.375 76.2281 89.8513 78.7519 86.75 78.7519C83.6488 78.7519 81.125 76.2281 81.125 73.1269C81.125 70.0256 83.6488 67.5019 86.75 67.5019ZM86.75 56.2519C91.9194 56.2519 96.125 52.0462 96.125 46.8769C96.125 45.36 95.7294 43.9481 95.0881 42.6806L97.3269 40.815L94.9269 37.935L92.7594 39.7425C91.1281 38.3662 89.0487 37.5037 86.7519 37.5037C81.5825 37.5037 77.3769 41.7094 77.3769 46.8787C77.3769 52.0481 81.5806 56.2519 86.75 56.2519ZM86.75 41.2519C87.8881 41.2519 88.9456 41.5969 89.8306 42.18L83.675 47.3119L86.075 50.1919L92.0863 45.1819C92.2569 45.7219 92.375 46.2825 92.375 46.8769C92.375 49.9781 89.8513 52.5019 86.75 52.5019C83.6488 52.5019 81.125 49.9781 81.125 46.8769C81.125 43.7756 83.6488 41.2519 86.75 41.2519ZM94.925 11.685L92.7575 13.4925C91.1262 12.1144 89.0469 11.2519 86.75 11.2519C81.5806 11.2519 77.375 15.4575 77.375 20.6269C77.375 25.7962 81.5806 30.0019 86.75 30.0019C91.9194 30.0019 96.125 25.7962 96.125 20.6269C96.125 19.11 95.7294 17.6981 95.0881 16.4306L97.3269 14.565L94.925 11.685ZM92.375 20.6269C92.375 23.7281 89.8513 26.2519 86.75 26.2519C83.6488 26.2519 81.125 23.7281 81.125 20.6269C81.125 17.5256 83.6488 15.0019 86.75 15.0019C87.8881 15.0019 88.9456 15.3469 89.8306 15.93L83.675 21.0619L86.075 23.9419L92.0863 18.9319C92.2569 19.4719 92.375 20.0325 92.375 20.6269Z" fill="white"/>
</svg>
