<svg width="106" height="106" viewBox="0 0 106 106" fill="none" xmlns="http://www.w3.org/2000/svg">
<path d="M63.5726 60.4661C60.6037 63.8504 56.9887 66.6193 52.9199 68.6268V80.164C52.9199 81.184 52.5147 82.1621 51.7935 82.8834C51.0723 83.6046 50.0941 84.0098 49.0742 84.0098H25.9997C24.9797 84.0098 24.0016 83.6046 23.2803 82.8834C22.5591 82.1621 22.154 81.184 22.154 80.164V68.6268C14.0498 64.5816 7.85425 57.5207 4.89689 48.9595C1.93953 40.3982 2.45601 31.0188 6.3355 22.834C10.215 14.6492 17.1483 8.31134 25.6477 5.18043C34.147 2.04951 43.535 2.37507 51.797 6.08725M22.154 103H52.9199" stroke="url(#paint0_linear_20_1760)" stroke-width="6" stroke-linecap="round" stroke-linejoin="round"/>
<path d="M55.7972 29.4232C53.0975 28.954 53.0975 25.0775 55.7972 24.6083C60.5774 23.7764 65.0015 21.5398 68.5055 18.1837C72.0096 14.8275 74.4348 10.504 75.4721 5.76416L75.6336 5.01039C76.2182 2.34144 80.0178 2.32606 80.6254 4.98732L80.8254 5.85645C81.9025 10.5748 84.3497 14.8697 87.8598 18.2019C91.3698 21.534 95.7861 23.7547 100.554 24.5852C103.269 25.0621 103.269 28.954 100.554 29.4309C95.7875 30.2628 91.3728 32.4841 87.8643 35.8161C84.3558 39.1482 81.9097 43.4423 80.8331 48.1597L80.6331 49.0288C80.0254 51.6901 76.2259 51.6747 75.6413 49.0057L75.4875 48.2597C74.4492 43.5177 72.0216 39.1927 68.5146 35.8363C65.0076 32.48 60.5802 30.2524 55.7972 29.4232Z" stroke="url(#paint1_linear_20_1760)" stroke-width="6" stroke-linecap="round" stroke-linejoin="round"/>
<defs>
<linearGradient id="paint0_linear_20_1760" x1="3.46924" y1="3.50342" x2="120.969" y2="122.503" gradientUnits="userSpaceOnUse">
<stop stop-color="#00D2D4"/>
<stop offset="0.977251" stop-color="#ED00B8"/>
</linearGradient>
<linearGradient id="paint1_linear_20_1760" x1="39.9697" y1="-11.4985" x2="116.47" y2="66.0015" gradientUnits="userSpaceOnUse">
<stop stop-color="#00D2D4"/>
<stop offset="1" stop-color="#ED00B8"/>
</linearGradient>
</defs>
</svg>
