<svg width="106" height="100" viewBox="0 0 106 100" fill="none" xmlns="http://www.w3.org/2000/svg">
<path d="M11.1111 80C14.058 80 16.8841 81.0536 18.9679 82.9289C21.0516 84.8043 22.2222 87.3478 22.2222 90C22.2222 92.6522 21.0516 95.1957 18.9679 97.0711C16.8841 98.9464 14.058 100 11.1111 100C8.16426 100 5.33811 98.9464 3.25437 97.0711C1.17063 95.1957 0 92.6522 0 90C0 87.3478 1.17063 84.8043 3.25437 82.9289C5.33811 81.0536 8.16426 80 11.1111 80ZM11.1111 87.5C10.3744 87.5 9.66786 87.7634 9.14693 88.2322C8.62599 88.7011 8.33333 89.337 8.33333 90C8.33333 90.663 8.62599 91.2989 9.14693 91.7678C9.66786 92.2366 10.3744 92.5 11.1111 92.5C11.8478 92.5 12.5544 92.2366 13.0753 91.7678C13.5962 91.2989 13.8889 90.663 13.8889 90C13.8889 89.337 13.5962 88.7011 13.0753 88.2322C12.5544 87.7634 11.8478 87.5 11.1111 87.5ZM41.6667 65C45.3502 65 48.8829 66.317 51.4876 68.6612C54.0923 71.0054 55.5556 74.1848 55.5556 77.5C55.5556 80.8152 54.0923 83.9946 51.4876 86.3388C48.8829 88.683 45.3502 90 41.6667 90C37.9831 90 34.4504 88.683 31.8457 86.3388C29.2411 83.9946 27.7778 80.8152 27.7778 77.5C27.7778 74.1848 29.2411 71.0054 31.8457 68.6612C34.4504 66.317 37.9831 65 41.6667 65ZM41.6667 72.5C40.1932 72.5 38.7802 73.0268 37.7383 73.9645C36.6964 74.9021 36.1111 76.1739 36.1111 77.5C36.1111 78.8261 36.6964 80.0979 37.7383 81.0355C38.7802 81.9732 40.1932 82.5 41.6667 82.5C43.1401 82.5 44.5532 81.9732 45.595 81.0355C46.6369 80.0979 47.2222 78.8261 47.2222 77.5C47.2222 76.1739 46.6369 74.9021 45.595 73.9645C44.5532 73.0268 43.1401 72.5 41.6667 72.5ZM54.5722 0C61.6388 0.00125176 68.4793 2.24178 73.8938 6.32858C79.3084 10.4154 82.9512 16.0875 84.1833 22.35H84.6389C90.1863 22.35 95.5066 24.3333 99.4292 27.8637C103.352 31.3941 105.556 36.1823 105.556 41.175C105.556 46.1677 103.352 50.9559 99.4292 54.4863C95.5066 58.0167 90.1863 60 84.6389 60H24.5111C18.9637 60 13.6434 58.0167 9.72079 54.4863C5.79816 50.9559 3.59444 46.1677 3.59444 41.175C3.59444 36.1823 5.79816 31.3941 9.72079 27.8637C13.6434 24.3333 18.9637 22.35 24.5111 22.35H24.9611C26.1933 16.0875 29.8361 10.4154 35.2506 6.32858C40.6651 2.24178 47.5056 0.00125176 54.5722 0ZM54.6056 7.49C49.0098 7.48866 43.6274 9.42249 39.5711 12.8917C35.5148 16.3609 33.0947 21.1003 32.8111 26.13C32.7626 27.0183 32.3365 27.8559 31.6208 28.4692C30.9052 29.0826 29.9549 29.4248 28.9667 29.425H25.0778C23.3547 29.3691 21.6367 29.6262 20.0265 30.1811C18.4163 30.736 16.9468 31.5772 15.7058 32.6546C14.4648 33.7319 13.4778 35.0233 12.8036 36.4515C12.1295 37.8798 11.782 39.4157 11.782 40.9675C11.782 42.5193 12.1295 44.0552 12.8036 45.4835C13.4778 46.9117 14.4648 48.2031 15.7058 49.2804C16.9468 50.3578 18.4163 51.199 20.0265 51.7539C21.6367 52.3088 23.3547 52.5659 25.0778 52.51H84.1333C85.8564 52.5659 87.5744 52.3088 89.1846 51.7539C90.7948 51.199 92.2643 50.3578 93.5053 49.2804C94.7463 48.2031 95.7333 46.9117 96.4075 45.4835C97.0816 44.0552 97.4291 42.5193 97.4291 40.9675C97.4291 39.4157 97.0816 37.8798 96.4075 36.4515C95.7333 35.0233 94.7463 33.7319 93.5053 32.6546C92.2643 31.5772 90.7948 30.736 89.1846 30.1811C87.5744 29.6262 85.8564 29.3691 84.1333 29.425H80.2445C79.2562 29.4248 78.3059 29.0826 77.5903 28.4692C76.8747 27.8559 76.4485 27.0183 76.4 26.13C76.1164 21.1003 73.6963 16.3609 69.64 12.8917C65.5837 9.42249 60.2013 7.48866 54.6056 7.49Z" fill="url(#paint0_linear_17_1742)"/>
<defs>
<linearGradient id="paint0_linear_17_1742" x1="14.4444" y1="15" x2="106.147" y2="109.653" gradientUnits="userSpaceOnUse">
<stop stop-color="#00D2D4"/>
<stop offset="1" stop-color="#ED00B8"/>
</linearGradient>
</defs>
</svg>
