<svg width="102" height="100" viewBox="0 0 102 100" fill="none" xmlns="http://www.w3.org/2000/svg">
<path d="M14.4821 14.3236C14.4821 10.5365 16.0079 6.90448 18.7239 4.22658C21.4398 1.54867 25.1234 0.044238 28.9643 0.044238C32.8052 0.044238 36.4888 1.54867 39.2047 4.22658C41.9206 6.90448 43.4464 10.5365 43.4464 14.3236C43.4464 18.1108 41.9206 21.7428 39.2047 24.4207C36.4888 27.0986 32.8052 28.603 28.9643 28.603C25.1234 28.603 21.4398 27.0986 18.7239 24.4207C16.0079 21.7428 14.4821 18.1108 14.4821 14.3236ZM28.9643 7.18393C27.0438 7.18393 25.202 7.93615 23.8441 9.2751C22.4861 10.6141 21.7232 12.4301 21.7232 14.3236C21.7232 16.2172 22.4861 18.0332 23.8441 19.3722C25.202 20.7111 27.0438 21.4633 28.9643 21.4633C30.8847 21.4633 32.7265 20.7111 34.0845 19.3722C35.4425 18.0332 36.2054 16.2172 36.2054 14.3236C36.2054 12.4301 35.4425 10.6141 34.0845 9.2751C32.7265 7.93615 30.8847 7.18393 28.9643 7.18393ZM63.5694 25.6329C62.0523 24.4919 60.7789 23.0666 59.8222 21.4389C58.8656 19.8112 58.2446 18.0131 57.9949 16.148C57.7452 14.2828 57.8718 12.3875 58.3674 10.5707C58.8629 8.75399 59.7177 7.05172 60.8825 5.56171C62.0474 4.07171 63.4994 2.82335 65.155 1.88836C66.8107 0.953379 68.6375 0.3502 70.5303 0.113487C72.4232 -0.123227 74.3448 0.0111903 76.1848 0.509016C78.0248 1.00684 79.7468 1.85826 81.2521 3.01435C84.2158 5.35192 86.1304 8.74321 86.584 12.4585C87.0376 16.1738 85.9939 19.9163 83.6774 22.8805C81.361 25.8448 77.9569 27.794 74.1977 28.3087C70.4385 28.8235 66.6174 27.8626 63.5694 25.6329ZM72.4107 7.18393C70.4903 7.18393 68.6485 7.93615 67.2905 9.2751C65.9325 10.6141 65.1697 12.4301 65.1697 14.3236C65.1697 16.2172 65.9325 18.0332 67.2905 19.3722C68.6485 20.7111 70.4903 21.4633 72.4107 21.4633C74.3312 21.4633 76.173 20.7111 77.5309 19.3722C78.8889 18.0332 79.6518 16.2172 79.6518 14.3236C79.6518 12.4301 78.8889 10.6141 77.5309 9.2751C76.173 7.93615 74.3312 7.18393 72.4107 7.18393ZM10.8616 35.7427H30.1953C29.3988 37.9774 28.9643 40.3835 28.9643 42.8824H10.8616C9.90138 42.8824 8.98049 43.2585 8.3015 43.928C7.62252 44.5975 7.24107 45.5055 7.24107 46.4523C7.24107 52.2854 9.59442 56.6121 13.3091 59.5536C15.018 60.9102 17.0672 62.0025 19.3844 62.8022C17.6828 64.5855 16.3715 66.695 15.5321 68.9994C13.1 68.0398 10.8238 66.7336 8.77618 65.1226C3.33089 60.8031 0 54.4202 0 46.4523C0 43.6119 1.14435 40.8879 3.18129 38.8795C5.21824 36.871 7.98093 35.7427 10.8616 35.7427ZM38.146 35.7427C36.2255 39.0243 35.7058 42.9236 36.7012 46.583C37.6966 50.2423 40.1255 53.3619 43.4537 55.2555C46.7818 57.1491 50.7365 57.6615 54.4479 56.68C58.1592 55.6986 61.3231 53.3037 63.2435 50.0221C65.164 46.7406 65.6837 42.8412 64.6883 39.1819C63.6929 35.5225 61.264 32.4029 57.9358 30.5093C54.6077 28.6158 50.653 28.1033 46.9416 29.0848C43.2303 30.0662 40.0664 32.4612 38.146 35.7427ZM49.0655 35.9212C50.1265 35.6849 51.2277 35.6866 52.2879 35.9261C53.3481 36.1656 54.3402 36.6369 55.191 37.3051C56.0417 37.9733 56.7294 38.8213 57.2032 39.7867C57.6771 40.752 57.9249 41.81 57.9286 42.8824C57.9286 43.4346 57.8682 43.9677 57.7476 44.4817C57.4571 45.7234 56.8348 46.8657 55.9454 47.7903C55.0561 48.7148 53.932 49.3878 52.6898 49.7394C51.4476 50.091 50.1326 50.1084 48.8813 49.7898C47.63 49.4712 46.4879 48.8282 45.5737 47.9275C44.6595 47.0268 44.0064 45.9013 43.6822 44.6678C43.358 43.4343 43.3746 42.1377 43.7301 40.9126C44.0857 39.6875 44.7673 38.5785 45.7042 37.7008C46.6411 36.8231 47.8065 36.2087 49.0655 35.9212ZM88.0587 59.5536C86.3498 60.9102 84.3006 62.0025 81.9834 62.8022C83.6824 64.5862 84.9912 66.6956 85.8284 68.9994C88.2904 68.007 90.5713 66.7147 92.5916 65.1226C98.0441 60.8031 101.375 54.4202 101.375 46.4523C101.375 43.6119 100.231 40.8879 98.1937 38.8795C96.1568 36.871 93.3941 35.7427 90.5134 35.7427H71.1797C71.9763 37.9774 72.4107 40.3835 72.4107 42.8824H90.5134C91.4736 42.8824 92.3945 43.2585 93.0735 43.928C93.7525 44.5975 94.1339 45.5055 94.1339 46.4523C94.1339 52.2854 91.7734 56.6121 88.0587 59.5536ZM68.7902 64.3015C71.6709 64.3015 74.4336 65.4298 76.4705 67.4383C78.5075 69.4467 79.6518 72.1707 79.6518 75.0111C79.6518 82.979 76.3281 89.3618 70.8756 93.6814C65.51 97.9295 58.3124 100 50.6875 100C43.0627 100 35.865 97.9295 30.4994 93.6814C25.0541 89.3618 21.7232 82.979 21.7232 75.0111C21.7194 73.6036 21.9977 72.2093 22.5422 70.9082C23.0867 69.6072 23.8866 68.4251 24.896 67.4299C25.9053 66.4346 27.1042 65.6459 28.4238 65.1091C29.7433 64.5722 31.1574 64.2977 32.5848 64.3015H68.7902ZM68.7902 71.4412H32.5848C31.6246 71.4412 30.7037 71.8173 30.0247 72.4868C29.3457 73.1563 28.9643 74.0643 28.9643 75.0111C28.9643 80.8442 31.3176 85.1708 35.0323 88.1124C38.8411 91.1254 44.3154 92.8603 50.6875 92.8603C57.0597 92.8603 62.5339 91.1254 66.3427 88.1124C70.0574 85.1708 72.4107 80.8442 72.4107 75.0111C72.4107 74.0643 72.0293 73.1563 71.3503 72.4868C70.6713 71.8173 69.7504 71.4412 68.7902 71.4412Z" fill="url(#paint0_linear_17_1736)"/>
<defs>
<linearGradient id="paint0_linear_17_1736" x1="4.99601e-07" y1="-9.9939" x2="119.373" y2="119.685" gradientUnits="userSpaceOnUse">
<stop stop-color="#00D2D4"/>
<stop offset="1" stop-color="#ED00B8"/>
</linearGradient>
</defs>
</svg>
