<svg width="109" height="100" viewBox="0 0 109 100" fill="none" xmlns="http://www.w3.org/2000/svg">
<path d="M20.339 74.5763H27.1186V81.3559H13.5593V13.5593H6.77966V88.1356H27.1186V94.9153H0V6.77966H13.5593V0H33.8983C37.0056 0 39.9894 0.476695 42.8496 1.43008C45.7097 2.38347 48.3757 3.81356 50.8475 5.72034C53.2839 3.81356 55.9322 2.38347 58.7924 1.43008C61.6525 0.476695 64.654 0 67.7966 0H88.1356V6.77966H101.695V50.1589L94.9153 47.0869V13.5593H88.1356V44.0148L81.3559 40.8898V6.77966H67.7966C65.2896 6.77966 62.8884 7.20339 60.5932 8.05085C58.298 8.8983 56.1794 10.1518 54.2373 11.8114V44.0148L47.4576 47.0869V11.8114C45.5508 10.1871 43.4499 8.95127 41.1547 8.10381C38.8595 7.25636 36.4407 6.81497 33.8983 6.77966H20.339V74.5763ZM94.9153 88.0826L71.1864 100L47.4576 88.0826C47.4576 86.8114 47.4753 85.4696 47.5106 84.0572C47.5459 82.6448 47.6871 81.2147 47.9343 79.767C48.1815 78.3192 48.5346 76.9597 48.9936 75.6886C49.4527 74.4174 50.0883 73.2345 50.9004 72.1398L40.678 67.4788V98.3051H33.8983V64.4068L71.1864 47.4576L108.475 64.4068L91.4725 72.1398L91.8962 72.7225C92.6377 73.8171 93.2027 75 93.5911 76.2712C93.9795 77.5424 94.2797 78.8312 94.4915 80.1377C94.7034 81.4442 94.827 82.786 94.8623 84.1631C94.8976 85.5403 94.9153 86.8468 94.9153 88.0826ZM71.1864 54.8729L50.2648 64.4068L71.1864 73.9407L92.1081 64.4068L71.1864 54.8729ZM71.1864 92.4258L88.1356 83.8983C88.1003 82.9802 88.0297 82.1504 87.9237 81.4089C87.8178 80.6674 87.6236 79.9435 87.3411 79.2373C87.0586 78.5311 86.7761 77.8425 86.4936 77.1716C86.2112 76.5007 85.8051 75.7592 85.2754 74.947L71.1864 81.3559L57.0975 74.947C56.5678 75.7945 56.1441 76.5537 55.8263 77.2246C55.5085 77.8955 55.226 78.5664 54.9788 79.2373C54.7316 79.9082 54.5727 80.6144 54.5021 81.3559C54.4315 82.0975 54.3609 82.9626 54.2903 83.9513L71.1864 92.4258Z" fill="url(#paint0_linear_17_1730)"/>
<defs>
<linearGradient id="paint0_linear_17_1730" x1="0" y1="0" x2="108" y2="167" gradientUnits="userSpaceOnUse">
<stop stop-color="#00D2D4"/>
<stop offset="1" stop-color="#ED00B8"/>
</linearGradient>
</defs>
</svg>
